<mxfile host="app.diagrams.net" modified="2024-04-27T17:15:54.995Z" agent="Mozilla/5.0 (Windows NT 10.0; Win64; x64; rv:125.0) Gecko/20100101 Firefox/125.0" etag="yxnRsVGHUykM0uGZBJ-P" version="24.3.1" type="device" pages="2">
  <diagram name="Planos" id="f6ClAOaqpRoXhEKxtEj0">
    <mxGraphModel dx="1007" dy="568" grid="1" gridSize="10" guides="1" tooltips="1" connect="1" arrows="1" fold="1" page="1" pageScale="1" pageWidth="827" pageHeight="1169" math="0" shadow="0">
      <root>
        <mxCell id="0" />
        <mxCell id="1" parent="0" />
      </root>
    </mxGraphModel>
  </diagram>
  <diagram id="VBXlelCnxtaFS-Go2MN1" name="Maquina de estados">
    <mxGraphModel dx="1259" dy="710" grid="1" gridSize="10" guides="1" tooltips="1" connect="1" arrows="1" fold="1" page="1" pageScale="1" pageWidth="827" pageHeight="1169" math="0" shadow="0">
      <root>
        <mxCell id="0" />
        <mxCell id="1" parent="0" />
        <mxCell id="Jq0fQm7kiiTpoULjgQbv-17" value="WAIT" style="edgeStyle=none;rounded=0;orthogonalLoop=1;jettySize=auto;html=1;" edge="1" parent="1" source="Jq0fQm7kiiTpoULjgQbv-18" target="Jq0fQm7kiiTpoULjgQbv-22">
          <mxGeometry relative="1" as="geometry" />
        </mxCell>
        <mxCell id="Jq0fQm7kiiTpoULjgQbv-18" value="SETUP" style="rounded=1;whiteSpace=wrap;html=1;fillColor=#f5f5f5;strokeColor=#666666;fontColor=#333333;" vertex="1" parent="1">
          <mxGeometry x="130" y="661" width="120" height="60" as="geometry" />
        </mxCell>
        <mxCell id="Jq0fQm7kiiTpoULjgQbv-19" value="WAIT" style="edgeStyle=none;rounded=0;orthogonalLoop=1;jettySize=auto;html=1;" edge="1" parent="1" source="Jq0fQm7kiiTpoULjgQbv-25" target="Jq0fQm7kiiTpoULjgQbv-22">
          <mxGeometry relative="1" as="geometry" />
        </mxCell>
        <mxCell id="Jq0fQm7kiiTpoULjgQbv-20" value="WAIT" style="edgeStyle=none;rounded=0;orthogonalLoop=1;jettySize=auto;html=1;" edge="1" parent="1" source="Jq0fQm7kiiTpoULjgQbv-28" target="Jq0fQm7kiiTpoULjgQbv-22">
          <mxGeometry relative="1" as="geometry" />
        </mxCell>
        <mxCell id="Jq0fQm7kiiTpoULjgQbv-37" value="EAST_IS_BIGGER" style="edgeStyle=orthogonalEdgeStyle;rounded=0;orthogonalLoop=1;jettySize=auto;html=1;exitX=1;exitY=0;exitDx=0;exitDy=0;entryX=0;entryY=0.5;entryDx=0;entryDy=0;" edge="1" parent="1" source="Jq0fQm7kiiTpoULjgQbv-22" target="Jq0fQm7kiiTpoULjgQbv-25">
          <mxGeometry relative="1" as="geometry" />
        </mxCell>
        <mxCell id="Jq0fQm7kiiTpoULjgQbv-38" value="WEST_IS_BIGGER" style="edgeStyle=orthogonalEdgeStyle;rounded=0;orthogonalLoop=1;jettySize=auto;html=1;exitX=1;exitY=1;exitDx=0;exitDy=0;entryX=0;entryY=0.5;entryDx=0;entryDy=0;" edge="1" parent="1" source="Jq0fQm7kiiTpoULjgQbv-22" target="Jq0fQm7kiiTpoULjgQbv-28">
          <mxGeometry relative="1" as="geometry" />
        </mxCell>
        <mxCell id="Jq0fQm7kiiTpoULjgQbv-22" value="WAITING" style="rounded=1;whiteSpace=wrap;html=1;fillColor=#f5f5f5;strokeColor=#666666;fontColor=#333333;" vertex="1" parent="1">
          <mxGeometry x="370" y="661" width="120" height="60" as="geometry" />
        </mxCell>
        <mxCell id="Jq0fQm7kiiTpoULjgQbv-24" value="EAST_IS_BIGGER" style="edgeStyle=none;rounded=0;orthogonalLoop=1;jettySize=auto;html=1;exitX=0;exitY=0;exitDx=0;exitDy=0;entryX=1;entryY=1;entryDx=0;entryDy=0;" edge="1" parent="1" source="Jq0fQm7kiiTpoULjgQbv-34" target="Jq0fQm7kiiTpoULjgQbv-25">
          <mxGeometry relative="1" as="geometry" />
        </mxCell>
        <mxCell id="Jq0fQm7kiiTpoULjgQbv-25" value="STEP_EAST" style="whiteSpace=wrap;html=1;rounded=1;fillColor=#f5f5f5;strokeColor=#666666;fontColor=#333333;" vertex="1" parent="1">
          <mxGeometry x="610" y="550" width="120" height="60" as="geometry" />
        </mxCell>
        <mxCell id="Jq0fQm7kiiTpoULjgQbv-27" value="WEST_IS_BIGGER" style="edgeStyle=none;rounded=0;orthogonalLoop=1;jettySize=auto;html=1;exitX=0;exitY=1;exitDx=0;exitDy=0;entryX=1;entryY=0;entryDx=0;entryDy=0;" edge="1" parent="1" source="Jq0fQm7kiiTpoULjgQbv-34" target="Jq0fQm7kiiTpoULjgQbv-28">
          <mxGeometry relative="1" as="geometry" />
        </mxCell>
        <mxCell id="Jq0fQm7kiiTpoULjgQbv-28" value="STEP_WEST" style="whiteSpace=wrap;html=1;rounded=1;fillColor=#f5f5f5;strokeColor=#666666;fontColor=#333333;" vertex="1" parent="1">
          <mxGeometry x="610" y="770" width="120" height="60" as="geometry" />
        </mxCell>
        <mxCell id="Jq0fQm7kiiTpoULjgQbv-29" value="" style="ellipse;html=1;shape=startState;fillColor=#000000;strokeColor=#000000;" vertex="1" parent="1">
          <mxGeometry x="20" y="676" width="30" height="30" as="geometry" />
        </mxCell>
        <mxCell id="Jq0fQm7kiiTpoULjgQbv-30" value="" style="edgeStyle=orthogonalEdgeStyle;html=1;verticalAlign=bottom;endArrow=open;endSize=8;strokeColor=#000000;rounded=0;entryX=0;entryY=0.5;entryDx=0;entryDy=0;" edge="1" parent="1" source="Jq0fQm7kiiTpoULjgQbv-29" target="Jq0fQm7kiiTpoULjgQbv-18">
          <mxGeometry relative="1" as="geometry">
            <mxPoint x="130" y="697" as="targetPoint" />
          </mxGeometry>
        </mxCell>
        <mxCell id="Jq0fQm7kiiTpoULjgQbv-31" value="NONE_IS_BIGGER" style="edgeStyle=none;rounded=0;orthogonalLoop=1;jettySize=auto;html=1;entryX=0;entryY=0.5;entryDx=0;entryDy=0;" edge="1" parent="1" source="Jq0fQm7kiiTpoULjgQbv-22" target="Jq0fQm7kiiTpoULjgQbv-34">
          <mxGeometry relative="1" as="geometry" />
        </mxCell>
        <mxCell id="Jq0fQm7kiiTpoULjgQbv-34" value="BALANCE" style="rounded=1;whiteSpace=wrap;html=1;fillColor=#f5f5f5;strokeColor=#666666;fontColor=#333333;" vertex="1" parent="1">
          <mxGeometry x="850" y="661" width="120" height="60" as="geometry" />
        </mxCell>
        <mxCell id="Jq0fQm7kiiTpoULjgQbv-35" value="NONE_IS_BIGGER" style="edgeStyle=orthogonalEdgeStyle;rounded=0;orthogonalLoop=1;jettySize=auto;html=1;exitX=1;exitY=0.25;exitDx=0;exitDy=0;entryX=1;entryY=0.75;entryDx=0;entryDy=0;" edge="1" parent="1" source="Jq0fQm7kiiTpoULjgQbv-34" target="Jq0fQm7kiiTpoULjgQbv-34">
          <mxGeometry relative="1" as="geometry">
            <Array as="points">
              <mxPoint x="1040" y="676" />
              <mxPoint x="1040" y="706" />
            </Array>
          </mxGeometry>
        </mxCell>
        <mxCell id="Jq0fQm7kiiTpoULjgQbv-36" value="WAIT" style="edgeStyle=orthogonalEdgeStyle;rounded=0;orthogonalLoop=1;jettySize=auto;html=1;exitX=0.75;exitY=0;exitDx=0;exitDy=0;entryX=0.25;entryY=0;entryDx=0;entryDy=0;" edge="1" parent="1" source="Jq0fQm7kiiTpoULjgQbv-22" target="Jq0fQm7kiiTpoULjgQbv-22">
          <mxGeometry relative="1" as="geometry">
            <Array as="points">
              <mxPoint x="460" y="630" />
              <mxPoint x="400" y="630" />
            </Array>
          </mxGeometry>
        </mxCell>
        <mxCell id="7-x7P_baZpx-9YBCmWVK-1" value="&lt;div align=&quot;center&quot;&gt;Todos los estados permiten el evento RESET que vuelve al estado SETUP.&lt;br&gt;&lt;/div&gt;" style="shape=note;size=20;whiteSpace=wrap;html=1;fillColor=#fff2cc;strokeColor=#d6b656;" vertex="1" parent="1">
          <mxGeometry x="20" y="510" width="190" height="100" as="geometry" />
        </mxCell>
      </root>
    </mxGraphModel>
  </diagram>
</mxfile>
